<?xml version="1.0" encoding="UTF-8"?>
<svg width="95px" height="26px" viewBox="0 0 95 26" version="1.1" xmlns="http://www.w3.org/2000/svg" xmlns:xlink="http://www.w3.org/1999/xlink">
    <!-- Generator: Sketch 50.2 (55047) - http://www.bohemiancoding.com/sketch -->
    <title>Hymane</title>
    <desc>Created with Sketch.</desc>
    <defs></defs>
    <g id="Page-1" stroke="none" stroke-width="1" fill="none" fill-rule="evenodd">
        <path d="M2.43070362,0.934206518 C2.40176668,2.72829729 2.34389278,5.56411818 2.25708194,9.38379531 C2.19920804,12.3643009 2.1123972,15.9235455 1.99664941,20.0615291 C1.76515382,20.1772769 1.41791045,20.2062138 0.954919281,20.2062138 C0.752360646,20.2062138 0.462991167,20.1772769 0.0868108437,20.119403 C0.0289369479,19.1934207 0,16.8495279 0,13.0298507 C0,9.90466037 0.115747792,5.85348766 0.405117271,0.876332623 C0.954919281,0.818458727 1.3310996,0.789521779 1.50472129,0.789521779 C1.82302772,0.789521779 2.14133415,0.847395675 2.43070362,0.934206518 Z M15.7995736,1.91806275 C15.7995736,3.01766677 15.8285105,4.98537923 15.8285105,7.76332623 C15.7127627,14.3320134 15.6259519,18.3542492 15.5102041,19.8300335 C15.2787085,19.9168443 14.989339,19.9457813 14.6420956,19.9457813 C14.2948523,19.9457813 13.9765458,19.9168443 13.6871764,19.8589705 C13.6293025,19.2802315 13.5714286,18.4989339 13.5714286,17.4572038 L13.5714286,11.6119403 C9.23088638,11.5251295 6.30825465,11.4383186 4.8324703,11.3225708 C4.74565946,11.1778861 4.68778556,10.8885166 4.68778556,10.4255254 C4.68778556,9.96253427 4.71672251,9.64422784 4.80353335,9.4995431 C6.53975023,9.4995431 8.21809321,9.47060615 9.83856229,9.47060615 C11.1407249,9.4995431 12.4139507,9.52848005 13.6293025,9.58635394 C13.7450503,6.17179409 13.8607981,3.59640573 13.9765458,1.91806275 C14.0633567,1.8891258 14.3237892,1.86018885 14.7867804,1.8312519 C15.018276,1.8312519 15.3655193,1.86018885 15.7995736,1.91806275 Z M31.0204082,8.71824551 C30.8757234,9.557417 29.3420652,12.5668596 26.3904965,17.7176363 C23.901919,21.8556199 22.194639,24.4888821 21.2397198,25.64636 C20.545233,25.4727383 20.0533049,25.1544319 19.8218093,24.6625038 C20.5162961,23.5050259 21.7027109,21.4794395 23.3810539,18.6436186 C21.5869631,16.2707889 19.7639354,13.0298507 17.8540969,8.94974109 C18.4328358,8.54462382 18.9247639,8.25525434 19.3298812,8.08163265 C21.8184587,12.5668596 23.5546756,15.4605544 24.5385318,16.762717 C26.6219921,13.2324094 28.3003351,10.3097776 29.5735608,7.99482181 C30.2101736,8.1105696 30.6731648,8.37100213 31.0204082,8.71824551 Z M50.9290283,14.2452026 C50.9000914,15.6341761 50.7843436,16.7337801 50.6107219,17.6018885 C50.2924155,19.1644837 50.0319829,20.0325921 49.8583613,20.1772769 C48.9902528,20.1772769 48.4693878,20.0615291 48.2378922,19.8010966 C48.6430094,16.9074018 48.8455681,15.0554371 48.8455681,14.1873287 C48.8455681,13.463905 48.7008833,12.8272921 48.4693878,12.306427 C48.0642705,11.7276881 47.5723424,11.4093817 47.0225404,11.3804447 C46.096558,11.4093817 44.6786476,12.4221748 42.768809,14.4188242 C41.6113311,11.5830034 40.3959793,10.136156 39.1516905,10.107219 C38.2835821,10.107219 37.4154737,10.5991471 36.5473652,11.5830034 C36.4605544,11.5251295 36.3158696,11.2936339 36.113311,10.9174535 C35.9107524,10.5702102 35.8239415,10.2808407 35.8239415,10.0782821 C36.8077977,8.71824551 37.9363387,8.02375876 39.2674383,7.99482181 C40.8589705,8.02375876 42.219007,9.21017362 43.318611,11.5540664 C44.5339628,10.0493451 45.7493147,9.29698447 47.0225404,9.26804752 C48.324703,9.26804752 49.3664331,9.84678648 50.1477307,11.0042644 C50.6685958,11.8723728 50.9290283,12.9430399 50.9290283,14.2452026 Z M35.4766981,19.9747182 C35.2452026,20.1483399 34.98477,20.2062138 34.6375267,20.2062138 C34.1745355,20.2062138 33.8562291,20.1772769 33.7404813,20.1772769 C33.4800487,19.2802315 33.2774901,17.312519 33.1617423,14.2452026 C33.0749315,12.1617423 33.0459945,10.4255254 33.0459945,9.00761499 C33.0459945,8.71824551 33.0459945,8.45781298 33.0749315,8.19738044 C33.3643009,8.08163265 33.6536704,8.02375876 33.885166,8.02375876 C34.3481572,8.02375876 34.6664636,8.05269571 34.8690222,8.1105696 C35.0426439,9.15229973 35.1873287,10.9463905 35.3320134,13.4928419 C35.4188242,15.9235455 35.4766981,17.8044472 35.4766981,19.1066098 L35.4766981,19.9747182 Z M65.3396284,19.1644837 C65.3396284,19.4249162 65.3106914,19.7142857 65.3106914,20.0325921 C64.5872677,20.0615291 64.0085288,20.0615291 63.6034115,20.0615291 C63.4297898,18.9619251 63.3719159,18.2385014 63.3719159,17.862321 C61.8671946,19.4249162 60.3045995,20.1772769 58.6841304,20.1772769 C57.1215352,20.1772769 55.7904356,19.7432227 54.6908316,18.8172403 C53.4176058,17.6308255 52.8099299,16.0971672 52.8099299,14.2452026 C52.8099299,12.335364 53.4465428,10.7438319 54.7197685,9.52848005 C55.8193725,8.54462382 57.1504721,8.05269571 58.6841304,8.02375876 C60.2177886,8.02375876 61.4620774,8.63143466 62.3880597,9.84678648 C62.214438,10.4255254 61.9250685,10.8306427 61.5199513,11.1200122 C60.6229059,10.3387146 59.6679866,9.93359732 58.6841304,9.93359732 C57.787085,9.96253427 56.9479135,10.3387146 56.137679,11.0621383 C55.2985075,11.8723728 54.8933902,12.9430399 54.8933902,14.2452026 C54.8933902,15.4026805 55.2406336,16.3865367 55.9929942,17.1967712 C56.7164179,17.9491319 57.6134633,18.2963753 58.7130673,18.2963753 C60.1888517,18.2963753 61.693573,17.4572038 63.1982942,15.7788608 C62.9667987,12.4511118 62.8799878,10.0204082 62.8799878,8.48674992 C63.0825465,8.39993908 63.4008529,8.34206518 63.8059701,8.28419129 C64.3557722,8.28419129 64.6451416,8.34206518 64.6740786,8.39993908 C64.8766372,8.92080414 65.0502589,10.5412732 65.1660067,13.2613463 C65.2817545,15.9235455 65.3396284,17.891258 65.3396284,19.1644837 Z M80.5893999,13.434968 C80.531526,16.3575998 80.1842827,18.5857447 79.5187329,20.1483399 C78.6506244,20.1483399 78.0718855,20.0036552 77.7246421,19.7432227 C78.2165702,16.8784648 78.4770027,14.8239415 78.4770027,13.6085897 C78.4770027,12.3932379 78.2165702,11.4961925 77.6957051,10.9174535 C77.0880292,10.3097776 76.3646055,9.99147122 75.5254341,9.99147122 C74.5415778,10.0493451 73.355163,10.4544624 71.9083156,11.206823 C71.3874505,10.8595797 71.127018,10.3387146 71.127018,9.67316479 C72.3134328,8.60249772 73.8470911,8.05269571 75.7569296,7.99482181 C77.203777,7.99482181 78.4191288,8.57356077 79.3740481,9.67316479 C80.1842827,10.7148949 80.5893999,11.9881206 80.5893999,13.434968 Z M70.2878465,19.0776729 C70.2878465,19.6564118 70.2589095,19.9747182 70.2589095,20.0325921 C70.027414,20.1483399 69.7380445,20.2062138 69.3618641,20.2062138 C68.9567469,20.2062138 68.6384405,20.1772769 68.4069449,20.090466 C68.2333232,19.540664 68.0886384,17.1099604 68.0018276,12.7694182 C67.9439537,11.0332013 67.9439537,9.4995431 67.9439537,8.1684435 C68.2911971,8.08163265 68.6095035,8.02375876 68.898873,8.02375876 C69.0724947,8.02375876 69.3908011,8.05269571 69.7959184,8.1105696 C69.8827292,8.80505635 69.9695401,10.2808407 70.0852878,12.5957965 C70.2010356,15.3737435 70.2878465,17.5150777 70.2878465,19.0776729 Z M95,13.7532744 C95,14.3320134 94.9421261,14.6503198 94.8553153,14.6792568 C93.6399634,15.113311 90.3122144,15.4316174 84.9299421,15.663113 C85.566555,17.4572038 87.0423393,18.3253122 89.3572952,18.3253122 C90.3990253,18.3253122 91.4696924,18.0938166 92.5403594,17.6018885 C92.8297289,17.9780688 93.0033506,18.4989339 93.1190984,19.1644837 C91.8748096,19.8879074 90.6015839,20.2351508 89.2704843,20.2351508 C87.1291502,20.2062138 85.4218702,19.6564118 84.2065184,18.5568078 C83.1358514,17.5150777 82.6149863,16.1550411 82.6149863,14.534572 C82.6149863,12.7404813 83.0490405,11.2936339 83.9750228,10.1650929 C85.2482486,8.68930856 86.8687176,7.93694791 88.8074931,7.93694791 C90.6594578,7.93694791 92.1063052,8.45781298 93.2059092,9.47060615 C94.3633871,10.6280841 94.9710631,12.0459945 95,13.7532744 Z M92.8586659,13.3192202 C92.8297289,12.6247335 92.5982333,11.9302467 92.1931161,11.2936339 C91.4407554,10.3097776 90.3122144,9.78891258 88.8364301,9.78891258 C87.7368261,9.78891258 86.7529698,10.2229668 85.9137984,11.0910752 C85.2193116,11.8144989 84.8431313,12.7694182 84.7563204,13.98477 C85.7112397,13.9268961 88.4023759,13.6954005 92.8586659,13.3192202 Z" id="Hymane" fill="#000000"></path>
    </g>
</svg>